<?xml version="1.0" encoding="utf-8"?>
<!-- Generator: Adobe Illustrator 28.2.0, SVG Export Plug-In . SVG Version: 6.00 Build 0)  -->
<svg version="1.1" xmlns="http://www.w3.org/2000/svg" xmlns:xlink="http://www.w3.org/1999/xlink" x="0px" y="0px"
	 viewBox="0 0 800 800" style="enable-background:new 0 0 800 800;" xml:space="preserve">
<style type="text/css">
	.st0{fill:#4E4E4D;}
	.st1{fill:url(#SVGID_1_);}
	.st2{fill:url(#SVGID_00000086689511027541803480000010776884244649207709_);}
	.st3{fill:url(#SVGID_00000023278266712452327470000003657042515500947337_);}
	.st4{fill:url(#SVGID_00000116212712237490985380000017678164344072406950_);}
	.st5{fill:url(#SVGID_00000096052552600109164200000016396967335828216972_);}
	.st6{fill:url(#SVGID_00000033363129509340166080000009249592647342772104_);}
	.st7{fill:url(#SVGID_00000007392797838625900080000009189777648318594193_);}
	.st8{fill:url(#SVGID_00000089544419874264732860000006608801975686886061_);}
	.st9{fill:url(#SVGID_00000042725109482283802440000010260805923952421290_);}
</style>
<g id="BACKGROUND">
</g>
<g id="OBJECTS">
	<g>
		<path class="st0" d="M454.26,729.25c0,0-25.66-106.78-9.82-172.55c15.84-65.77,40.9-79.58,38.43-89.61
			c-2.47-10.03-15.14-5.31-19.19,3.96c-4.05,9.27-20.64,29.28-35.88,26.05c-15.24-3.23-19.34-65.79-30.48-72.05
			c-11.15-6.25-7.28,22.66-2.95,47.73c4.33,25.07-17.02,11.11-30.33-18.95c-13.31-30.07-21.1-21.26-22.57-17
			c-1.47,4.26,29.26,57.89,26.99,60.46c-2.27,2.57-40.77-41.91-44.51-40.63c-3.74,1.27-10.12,4.79-0.92,18.8
			c9.2,14.01,38.07,37.56,36.23,41.49c-1.84,3.93-25.72-17.5-34.43-18c-8.71-0.5-5.17,11.77,10.44,22.96
			c15.62,11.18,53.86,23.4,55.08,65.67c1.22,42.27-9.77,141.5-9.77,141.5S407.73,766.21,454.26,729.25z"/>
		
			<linearGradient id="SVGID_1_" gradientUnits="userSpaceOnUse" x1="429.4362" y1="105.6448" x2="511.6908" y2="534.5442" gradientTransform="matrix(0.9656 0.26 -0.26 0.9656 105.7571 -106.3102)">
			<stop  offset="0" style="stop-color:#9DC44D"/>
			<stop  offset="1" style="stop-color:#5FA69B"/>
		</linearGradient>
		<path class="st1" d="M429.42,445.98c0,0-97.98-144.12,68.37-299.48c0,0,152.29,179.31-42.58,301.13c0,0,4.61-115.62,26.48-162.72
			C481.69,284.9,423.1,387.37,429.42,445.98z"/>
		
			<linearGradient id="SVGID_00000055690426528454165500000000316211942871945648_" gradientUnits="userSpaceOnUse" x1="551.7155" y1="120.6327" x2="627.1868" y2="514.1618" gradientTransform="matrix(0.9889 0.1485 -0.1485 0.9889 73.4801 -84.1617)">
			<stop  offset="0" style="stop-color:#9DC44D"/>
			<stop  offset="1" style="stop-color:#5FA69B"/>
		</linearGradient>
		<path style="fill:url(#SVGID_00000055690426528454165500000000316211942871945648_);" d="M495.6,459.87
			c0,0,60.17-126.76,235.82-74.49c0,0-62.49,178.79-226.47,93.05c0,0,82.19-43.85,123.79-47.86
			C628.76,430.57,533.7,431.63,495.6,459.87z"/>
		
			<linearGradient id="SVGID_00000116937538469570444110000007060447882996157876_" gradientUnits="userSpaceOnUse" x1="125.9606" y1="189.3369" x2="201.4328" y2="582.8707" gradientTransform="matrix(0.9995 -0.0303 0.0303 0.9995 9.1378 15.4605)">
			<stop  offset="0" style="stop-color:#9DC44D"/>
			<stop  offset="1" style="stop-color:#5FA69B"/>
		</linearGradient>
		<path style="fill:url(#SVGID_00000116937538469570444110000007060447882996157876_);" d="M312.57,462.38
			c0,0-115.75,81.37-244-51.7c0,0,143.64-125.91,245.01,30.74c0,0-93.92-2.28-132.44-19.43C181.14,422,265.07,468.26,312.57,462.38z
			"/>
		
			<linearGradient id="SVGID_00000040548187472837272490000005064885173082448058_" gradientUnits="userSpaceOnUse" x1="280.4851" y1="107.4071" x2="376.7715" y2="609.4726" gradientTransform="matrix(0.9705 -0.2409 0.2409 0.9705 -84.555 68.4115)">
			<stop  offset="0" style="stop-color:#9DC44D"/>
			<stop  offset="1" style="stop-color:#5FA69B"/>
		</linearGradient>
		<path style="fill:url(#SVGID_00000040548187472837272490000005064885173082448058_);" d="M341.63,424.15
			c0,0-149.93-51.12-114-254.87c0,0,208.59,46.99,133.61,241.97c0,0-59.79-86.51-69.67-132.65
			C291.57,278.6,305.05,385.08,341.63,424.15z"/>
		
			<linearGradient id="SVGID_00000069388221340605330940000006453814238749508270_" gradientUnits="userSpaceOnUse" x1="587.9922" y1="78.5719" x2="638.7868" y2="343.4296" gradientTransform="matrix(0.9432 -0.3323 0.3323 0.9432 -49.3136 226.9638)">
			<stop  offset="0" style="stop-color:#9DC44D"/>
			<stop  offset="1" style="stop-color:#5FA69B"/>
		</linearGradient>
		<path style="fill:url(#SVGID_00000069388221340605330940000006453814238749508270_);" d="M576.77,342.8
			c0,0-4.21-94.35,116.72-118.68c0,0,19.24,126.01-105.3,126.76c0,0,35.04-52,58.51-67.51C646.69,283.38,590.51,313.99,576.77,342.8
			z"/>
		
			<linearGradient id="SVGID_00000164485015062865694690000000302150762922930876_" gradientUnits="userSpaceOnUse" x1="146.7014" y1="339.1992" x2="194.2807" y2="587.2914" gradientTransform="matrix(0.9104 0.4137 -0.4137 0.9104 187.7067 -218.632)">
			<stop  offset="0" style="stop-color:#9DC44D"/>
			<stop  offset="1" style="stop-color:#5FA69B"/>
		</linearGradient>
		<path style="fill:url(#SVGID_00000164485015062865694690000000302150762922930876_);" d="M205.42,346.59
			c0,0-88.12,13.85-123.68-97.1c0,0,116.28-31.3,130.08,85.52c0,0-52.51-27.41-69.53-47.82
			C142.29,287.2,176.91,336.71,205.42,346.59z"/>
		
			<linearGradient id="SVGID_00000163041538656082297580000002625270612435358094_" gradientUnits="userSpaceOnUse" x1="359.013" y1="153.5673" x2="421.0617" y2="477.1072" gradientTransform="matrix(0.97 0.243 -0.243 0.97 90.5345 -222.6266)">
			<stop  offset="0" style="stop-color:#9DC44D"/>
			<stop  offset="1" style="stop-color:#5FA69B"/>
		</linearGradient>
		<path style="fill:url(#SVGID_00000163041538656082297580000002625270612435358094_);" d="M377.8,233.88
			c0,0-69.84-74.45,12.25-179.51c0,0,104.47,89.85,2.81,178.1c0,0-7.84-67.31,0.5-96.56C393.36,135.92,368.81,200.58,377.8,233.88z"
			/>
		
			<linearGradient id="SVGID_00000000205654210138859710000005103331726038736804_" gradientUnits="userSpaceOnUse" x1="567.5652" y1="250.1066" x2="618.3628" y2="514.9804" gradientTransform="matrix(0.5749 0.8182 -0.8182 0.5749 594.2622 -198.1545)">
			<stop  offset="0" style="stop-color:#9DC44D"/>
			<stop  offset="1" style="stop-color:#5FA69B"/>
		</linearGradient>
		<path style="fill:url(#SVGID_00000000205654210138859710000005103331726038736804_);" d="M499.9,517.81
			c0,0,89.69-29.56,145.81,80.28c0,0-116.12,52.6-150.51-67.1c0,0,59.53,19.67,80.81,38.07
			C576.01,569.06,531.34,523.25,499.9,517.81z"/>
		
			<linearGradient id="SVGID_00000037681776479467434350000014073877122050601653_" gradientUnits="userSpaceOnUse" x1="61.2508" y1="123.4847" x2="114.1566" y2="399.351" gradientTransform="matrix(0.8091 -0.5876 0.5876 0.8091 -8.0178 387.2622)">
			<stop  offset="0" style="stop-color:#9DC44D"/>
			<stop  offset="1" style="stop-color:#5FA69B"/>
		</linearGradient>
		<path style="fill:url(#SVGID_00000037681776479467434350000014073877122050601653_);" d="M316.82,534.91
			c0,0-34.96,92.83-161.78,66.33c0,0,33.54-129.64,154.09-78.87c0,0-55.32,35.74-84.41,41
			C224.73,563.37,291.62,557.06,316.82,534.91z"/>
	</g>
</g>
</svg>
